<?xml version="1.0" encoding="utf-8"?>
<!-- Generator: Adobe Illustrator 25.2.1, SVG Export Plug-In . SVG Version: 6.00 Build 0)  -->
<svg version="1.1" id="Layer_1" xmlns="http://www.w3.org/2000/svg" xmlns:xlink="http://www.w3.org/1999/xlink" x="0px" y="0px"
	 viewBox="0 0 512 512" style="enable-background:new 0 0 512 512;" xml:space="preserve">
<style type="text/css">
	.st0{fill:#FFFFFF;}
</style>
<path class="st0" d="M424,80H88c-30.9,0-56,25.1-56,56v240c0,30.9,25.1,56,56,56h336c30.9,0,56-25.1,56-56V136
	C480,105.1,454.9,80,424,80z M409.8,172.6l-144,112c-5.8,4.5-13.9,4.5-19.6,0l-144-112c-7.1-5.3-8.5-15.4-3.1-22.4
	c5.3-7.1,15.4-8.5,22.4-3.1c0.1,0.1,0.2,0.2,0.4,0.3L256,251.7l134.2-104.4c7.1-5.3,17.1-3.9,22.4,3.1
	C417.8,157.4,416.6,167.2,409.8,172.6L409.8,172.6z"/>
</svg>
